<!DOCTYPE svg PUBLIC "-//W3C//DTD SVG 1.1//EN" "http://www.w3.org/Graphics/SVG/1.1/DTD/svg11.dtd">

<!-- Uploaded to: SVG Repo, www.svgrepo.com, Transformed by: SVG Repo Mixer Tools -->
<svg fill="auto" width="45px" height="45px" viewBox="0 0 32 32" version="1.1" xmlns="http://www.w3.org/2000/svg">

<g id="SVGRepo_bgCarrier" stroke-width="0"/>

<g id="SVGRepo_tracerCarrier" stroke-linecap="round" stroke-linejoin="round"/>

<g id="SVGRepo_iconCarrier"> <title>cloud</title> <path d="M30.674 18.75c-0.201-2.96-2.352-5.364-5.169-5.949l-0.042-0.007c0.145-0.341 0.229-0.738 0.229-1.154 0-0.277-0.037-0.545-0.107-0.8l0.005 0.021c-0.451-1.39-1.572-2.445-2.971-2.796l-0.029-0.006c-0.35-0.104-0.753-0.164-1.17-0.164-0.882 0-1.701 0.268-2.381 0.726l0.015-0.010c-2.518-3.16-7.254-3.052-10.655-0.988-2.056 0.998-3.449 3.071-3.449 5.469 0 0.643 0.1 1.263 0.286 1.845l-0.012-0.043c-2.332 0.765-3.986 2.922-3.986 5.466 0 0.124 0.004 0.248 0.012 0.37l-0.001-0.017c-0.001 0.040-0.002 0.086-0.002 0.133 0 1.261 0.403 2.428 1.088 3.378l-0.012-0.017c0.764 1.004 1.959 1.646 3.305 1.646 0.043 0 0.086-0.001 0.129-0.002l-0.006 0 20.28-0.008c3.783-0.518 5.059-4.041 4.641-7.094zM25.932 24.352h-20.179c-0.034 0.002-0.074 0.002-0.115 0.002-0.863 0-1.629-0.411-2.114-1.049l-0.005-0.007c-0.483-0.684-0.772-1.535-0.772-2.453 0-0.047 0.001-0.093 0.002-0.14l-0 0.007c-0.015-0.129-0.023-0.279-0.023-0.431 0-2.089 1.587-3.807 3.62-4.015l0.017-0.001c0.414-0 0.75-0.336 0.75-0.75 0-0.144-0.040-0.278-0.11-0.392l0.002 0.003c-1.604-2.643 0.070-4.946 2.172-6.221 1.248-0.775 2.757-1.242 4.374-1.265l0.006-0c0.075-0.004 0.163-0.006 0.251-0.006 1.866 0 3.505 0.971 4.44 2.435l0.013 0.021c0.133 0.218 0.37 0.361 0.64 0.361 0.206 0 0.392-0.083 0.528-0.218l-0 0c0.503-0.519 1.207-0.841 1.985-0.841 0.278 0 0.547 0.041 0.8 0.117l-0.020-0.005c0.909 0.216 1.629 0.868 1.937 1.717l0.006 0.019c0.027 0.117 0.043 0.251 0.043 0.388 0 0.559-0.256 1.057-0.657 1.386l-0.003 0.003c-0.137 0.136-0.222 0.325-0.222 0.533 0 0.414 0.336 0.75 0.75 0.75 0.036 0 0.071-0.002 0.105-0.007l-0.004 0c0.081-0.005 0.176-0.008 0.271-0.008 2.597 0 4.709 2.077 4.766 4.661l0 0.005c0.33 2.416-0.58 5.025-3.256 5.398z"/> </g>

</svg>