<svg xmlns="http://www.w3.org/2000/svg" xmlns:xlink="http://www.w3.org/1999/xlink" viewBox="0,0,256,256" width="25px" height="25px" fill-rule="nonzero"><g fill="#ffffff" fill-rule="nonzero" stroke="none" stroke-width="1" stroke-linecap="butt" stroke-linejoin="miter" stroke-miterlimit="10" stroke-dasharray="" stroke-dashoffset="0" font-family="none" font-weight="none" font-size="none" text-anchor="none" style="mix-blend-mode: normal"><g transform="scale(4,4)"><path d="M32,19c7.18,0 13,5.82 13,13c0,7.18 -5.82,13 -13,13c-7.18,0 -13,-5.82 -13,-13c0,-7.18 5.82,-13 13,-13zM34,8c0,0.366 0,5.634 0,6c0,1.105 -0.895,2 -2,2c-1.105,0 -2,-0.895 -2,-2c0,-0.366 0,-5.634 0,-6c0,-1.105 0.895,-2 2,-2c1.105,0 2,0.895 2,2zM50.385,16.444c-0.259,0.259 -3.984,3.984 -4.243,4.243c-0.781,0.781 -2.047,0.781 -2.828,0c-0.781,-0.781 -0.781,-2.047 0,-2.828c0.259,-0.259 3.984,-3.984 4.243,-4.243c0.781,-0.781 2.047,-0.781 2.828,0c0.781,0.781 0.781,2.047 0,2.828zM56,34c-0.366,0 -5.634,0 -6,0c-1.105,0 -2,-0.895 -2,-2c0,-1.105 0.895,-2 2,-2c0.366,0 5.634,0 6,0c1.105,0 2,0.895 2,2c0,1.105 -0.895,2 -2,2zM47.556,50.385c-0.259,-0.259 -3.984,-3.984 -4.243,-4.243c-0.781,-0.781 -0.781,-2.047 0,-2.828c0.781,-0.781 2.047,-0.781 2.828,0c0.259,0.259 3.984,3.984 4.243,4.243c0.781,0.781 0.781,2.047 0,2.828c-0.781,0.781 -2.047,0.781 -2.828,0zM30,56c0,-0.366 0,-5.634 0,-6c0,-1.105 0.895,-2 2,-2c1.105,0 2,0.895 2,2c0,0.366 0,5.634 0,6c0,1.105 -0.895,2 -2,2c-1.105,0 -2,-0.895 -2,-2zM13.615,47.556c0.259,-0.259 3.984,-3.984 4.243,-4.243c0.781,-0.781 2.047,-0.781 2.828,0c0.781,0.781 0.781,2.047 0,2.828c-0.259,0.259 -3.984,3.984 -4.243,4.243c-0.781,0.781 -2.047,0.781 -2.828,0c-0.781,-0.781 -0.781,-2.047 0,-2.828zM8,30c0.366,0 5.634,0 6,0c1.105,0 2,0.895 2,2c0,1.105 -0.895,2 -2,2c-0.366,0 -5.634,0 -6,0c-1.105,0 -2,-0.895 -2,-2c0,-1.105 0.895,-2 2,-2zM16.444,13.615c0.259,0.259 3.984,3.984 4.243,4.243c0.781,0.781 0.781,2.047 0,2.828c-0.781,0.781 -2.047,0.781 -2.828,0c-0.259,-0.259 -3.984,-3.984 -4.243,-4.243c-0.781,-0.781 -0.781,-2.047 0,-2.828c0.781,-0.781 2.047,-0.781 2.828,0z"></path></g></g></svg>