<?xml version="1.0" ?>

<!-- Uploaded to: SVG Repo, www.svgrepo.com, Generator: SVG Repo Mixer Tools -->
<svg fill="#fff" width="64px" height="64px" viewBox="0 0 64 64" version="1.1" xml:space="preserve" xmlns="http://www.w3.org/2000/svg" xmlns:xlink="http://www.w3.org/1999/xlink">

<g id="cloudy_sunny"/>

<g id="bright"/>

<g id="cloudy"/>

<g id="high_rainfall"/>

<g id="windy"/>

<g id="rain_with_thunder"/>

<g id="clear_night"/>

<g id="cloudy_night"/>

<g id="moon"/>

<g id="sun"/>

<g id="rainy_night"/>

<g id="windy_night"/>

<g id="night_rain_thunder"/>

<g id="windy_rain"/>

<g id="temperature"/>

<g id="humidity"/>

<g id="air_pressure"/>

<g id="low_rainfall"/>

<g id="moderate_rainfall"/>

<g id="Sunset">

<g>

<path d="M60,35.4c-2.5,0-3.7,0.3-4.9,0.6c-1.1,0.3-2.2,0.5-4.4,0.5c-1.5,0-2.4-0.1-3.3-0.3c0.4-1.4,0.6-2.8,0.6-4.3    c0-8.8-7.2-16-16-16s-16,7.2-16,16c0,1.5,0.2,2.9,0.6,4.3c-0.8,0.2-1.8,0.3-3.3,0.3c-2.2,0-3.3-0.3-4.4-0.5    c-1.2-0.3-2.4-0.6-4.9-0.6c-0.6,0-1,0.4-1,1s0.4,1,1,1c2.2,0,3.3,0.3,4.4,0.5c1.2,0.3,2.4,0.6,4.9,0.6c2.5,0,3.7-0.3,4.9-0.6    c1.1-0.3,2.2-0.5,4.4-0.5c2.2,0,3.3,0.3,4.4,0.5c1.2,0.3,2.4,0.6,4.9,0.6c2.5,0,3.7-0.3,4.9-0.6c1.1-0.3,2.2-0.5,4.4-0.5    c2.2,0,3.3,0.3,4.4,0.5c1.2,0.3,2.4,0.6,4.9,0.6s3.7-0.3,4.9-0.6c1.1-0.3,2.2-0.5,4.4-0.5c0.6,0,1-0.4,1-1S60.6,35.4,60,35.4z     M36.4,36c-1.1,0.3-2.2,0.5-4.4,0.5s-3.3-0.3-4.4-0.5c-1.2-0.3-2.4-0.6-4.9-0.6c-1.9,0-3.1,0.2-4.1,0.4C18.2,34.6,18,33.3,18,32    c0-7.7,6.3-14,14-14s14,6.3,14,14c0,1.3-0.2,2.6-0.5,3.8c-1-0.2-2.2-0.4-4.1-0.4C38.9,35.4,37.6,35.7,36.4,36z"/>

<path d="M52,41.3c-2.4,0-3.6-0.2-4.8-0.4c-1.3-0.2-2.6-0.4-5.2-0.4c-2.6,0-3.9,0.2-5.2,0.4c-1.2,0.2-2.4,0.4-4.8,0.4    c-2.4,0-3.6-0.2-4.8-0.4c-1.3-0.2-2.6-0.4-5.2-0.4c-2.6,0-3.9,0.2-5.2,0.4c-1.2,0.2-2.4,0.4-4.8,0.4c-0.6,0-1,0.4-1,1s0.4,1,1,1    c2.6,0,3.9-0.2,5.2-0.4c1.2-0.2,2.4-0.4,4.8-0.4c2.4,0,3.6,0.2,4.8,0.4c1.3,0.2,2.6,0.4,5.2,0.4c2.6,0,3.9-0.2,5.2-0.4    c1.2-0.2,2.4-0.4,4.8-0.4c2.4,0,3.6,0.2,4.8,0.4c1.3,0.2,2.6,0.4,5.2,0.4c0.6,0,1-0.4,1-1S52.6,41.3,52,41.3z"/>

<path d="M46,46.2c-1.7,0-2.5-0.1-3.3-0.3c-0.9-0.1-1.8-0.3-3.7-0.3c-1.8,0-2.8,0.1-3.7,0.3c-0.9,0.1-1.7,0.3-3.3,0.3    c-1.7,0-2.5-0.1-3.3-0.3c-0.9-0.1-1.8-0.3-3.7-0.3s-2.8,0.1-3.7,0.3c-0.9,0.1-1.7,0.3-3.3,0.3c-0.6,0-1,0.4-1,1s0.4,1,1,1    c1.8,0,2.8-0.1,3.7-0.3c0.9-0.1,1.7-0.3,3.3-0.3s2.5,0.1,3.3,0.3c0.9,0.1,1.8,0.3,3.7,0.3c1.8,0,2.8-0.1,3.7-0.3    c0.9-0.1,1.7-0.3,3.3-0.3c1.7,0,2.5,0.1,3.3,0.3c0.9,0.1,1.8,0.3,3.7,0.3c0.6,0,1-0.4,1-1S46.6,46.2,46,46.2z"/>

<path d="M39,51c-0.8,0-1.2-0.1-1.6-0.1c-0.4-0.1-1-0.2-1.9-0.2s-1.5,0.1-1.9,0.2C33.2,50.9,32.8,51,32,51c-0.8,0-1.2-0.1-1.6-0.1    c-0.4-0.1-1-0.2-1.9-0.2c-1,0-1.5,0.1-1.9,0.2C26.2,50.9,25.8,51,25,51c-0.6,0-1,0.4-1,1s0.4,1,1,1c1,0,1.5-0.1,1.9-0.2    c0.4-0.1,0.8-0.1,1.6-0.1c0.8,0,1.2,0.1,1.6,0.1c0.4,0.1,1,0.2,1.9,0.2c1,0,1.5-0.1,1.9-0.2c0.4-0.1,0.8-0.1,1.6-0.1    c0.8,0,1.2,0.1,1.6,0.1c0.4,0.1,1,0.2,1.9,0.2c0.6,0,1-0.4,1-1S39.6,51,39,51z"/>

<path d="M32,14c0.6,0,1-0.4,1-1v-1c0-0.6-0.4-1-1-1s-1,0.4-1,1v1C31,13.6,31.4,14,32,14z"/>

<path d="M51,33h1c0.6,0,1-0.4,1-1s-0.4-1-1-1h-1c-0.6,0-1,0.4-1,1S50.4,33,51,33z"/>

<path d="M12,33h1c0.6,0,1-0.4,1-1s-0.4-1-1-1h-1c-0.6,0-1,0.4-1,1S11.4,33,12,33z"/>

<path d="M45.4,19.6c0.3,0,0.5-0.1,0.7-0.3l0.7-0.7c0.4-0.4,0.4-1,0-1.4s-1-0.4-1.4,0l-0.7,0.7c-0.4,0.4-0.4,1,0,1.4    C44.9,19.5,45.2,19.6,45.4,19.6z"/>

<path d="M17.8,19.3c0.2,0.2,0.5,0.3,0.7,0.3s0.5-0.1,0.7-0.3c0.4-0.4,0.4-1,0-1.4l-0.7-0.7c-0.4-0.4-1-0.4-1.4,0s-0.4,1,0,1.4    L17.8,19.3z"/>

</g>

</g>

</svg>