<!DOCTYPE svg PUBLIC "-//W3C//DTD SVG 1.1//EN" "http://www.w3.org/Graphics/SVG/1.1/DTD/svg11.dtd">
<!-- Uploaded to: SVG Repo, www.svgrepo.com, Transformed by: SVG Repo Mixer Tools -->
<svg fill="#ffffff" width="64px" height="64px" viewBox="0 0 256 256" id="Flat" xmlns="http://www.w3.org/2000/svg" stroke="#ffffff">
<g id="SVGRepo_bgCarrier" stroke-width="0"/>
<g id="SVGRepo_tracerCarrier" stroke-linecap="round" stroke-linejoin="round"/>
<g id="SVGRepo_iconCarrier"> <path d="M180,184a28.004,28.004,0,0,1-54.26709,9.71582,3.9999,3.9999,0,0,1,7.50293-2.77539A20.00288,20.00288,0,1,0,152,164H40a4,4,0,0,1,0-8H152A28.03146,28.03146,0,0,1,180,184ZM148,72a28.004,28.004,0,0,0-54.26709-9.71582,3.9999,3.9999,0,0,0,7.50293,2.77539A20.00288,20.00288,0,1,1,120,92H24a4,4,0,0,0,0,8h96A28.03146,28.03146,0,0,0,148,72Zm60,4a28.11549,28.11549,0,0,0-26.26709,18.28418,3.9999,3.9999,0,0,0,7.50293,2.77539A20.00288,20.00288,0,1,1,208,124H32a4,4,0,0,0,0,8H208a28,28,0,0,0,0-56Z"/> </g>
</svg>